HIERARCHY
ROOT Hips
{
 OFFSET 0.000000 0.000000 0.000000
 CHANNELS 6 Xposition Yposition Zposition Yrotation Xrotation Zrotation
 JOINT Chest
 {
  OFFSET 0.000000 9.585900 0.002600
  CHANNELS 3 Yrotation Xrotation Zrotation
  JOINT Chest2
  {
   OFFSET 0.000000 9.601200 -0.005300
   CHANNELS 3 Yrotation Xrotation Zrotation
   JOINT Chest3
   {
    OFFSET 0.000000 9.561800 0.000000
    CHANNELS 3 Yrotation Xrotation Zrotation
    JOINT Chest4
    {
     OFFSET 0.000000 9.552100 0.000000
     CHANNELS 3 Yrotation Xrotation Zrotation
     JOINT Neck
     {
      OFFSET 0.000000 14.453000 0.000000
      CHANNELS 3 Yrotation Xrotation Zrotation
      JOINT Head
      {
       OFFSET 0.000000 8.936500 -0.011300
       CHANNELS 3 Yrotation Xrotation Zrotation
       End Site
       {
        OFFSET 0.000000 17.073600 -0.006000
       }
      }
     }
     JOINT RightCollar
     {
      OFFSET -2.921100 9.558500 0.000000
      CHANNELS 3 Yrotation Xrotation Zrotation
      JOINT RightShoulder
      {
       OFFSET -13.519700 0.000000 0.000000
       CHANNELS 3 Yrotation Xrotation Zrotation
       JOINT RightElbow
       {
        OFFSET 0.000000 -29.696600 0.000000
        CHANNELS 3 Yrotation Xrotation Zrotation
        JOINT RightWrist
        {
         OFFSET 0.000000 -24.004700 0.000000
         CHANNELS 3 Yrotation Xrotation Zrotation
         End Site
         {
          OFFSET 0.000000 -17.728500 0.000000
         }
        }
       }
      }
     }
     JOINT LeftCollar
     {
      OFFSET 2.921100 9.558500 0.000000
      CHANNELS 3 Yrotation Xrotation Zrotation
      JOINT LeftShoulder
      {
       OFFSET 13.519700 0.000000 0.000000
       CHANNELS 3 Yrotation Xrotation Zrotation
       JOINT LeftElbow
       {
        OFFSET 0.000000 -29.696600 0.000000
        CHANNELS 3 Yrotation Xrotation Zrotation
        JOINT LeftWrist
        {
         OFFSET 0.000000 -24.004700 0.000000
         CHANNELS 3 Yrotation Xrotation Zrotation
         End Site
         {
          OFFSET 0.000000 -17.728500 0.000000
         }
        }
       }
      }
     }
    }
   }
  }
 }
 JOINT RightHip
 {
  OFFSET -7.771700 -0.012900 -0.001300
  CHANNELS 3 Yrotation Xrotation Zrotation
  JOINT RightKnee
  {
   OFFSET 0.000000 -40.869800 0.001200
   CHANNELS 3 Yrotation Xrotation Zrotation
   JOINT RightAnkle
   {
    OFFSET 0.000000 -39.717900 0.002100
    CHANNELS 3 Yrotation Xrotation Zrotation
    JOINT RightToe
    {
     OFFSET 0.000000 -4.965400 11.033500
     CHANNELS 3 Yrotation Xrotation Zrotation
     End Site
     {
      OFFSET 0.000000 -1.423100 5.872300
     }
    }
   }
  }
 }
 JOINT LeftHip
 {
  OFFSET 7.771700 -0.012900 -0.001300
  CHANNELS 3 Yrotation Xrotation Zrotation
  JOINT LeftKnee
  {
   OFFSET 0.000000 -40.869800 0.001200
   CHANNELS 3 Yrotation Xrotation Zrotation
   JOINT LeftAnkle
   {
    OFFSET 0.000000 -39.717900 0.002100
    CHANNELS 3 Yrotation Xrotation Zrotation
    JOINT LeftToe
    {
     OFFSET 0.000000 -4.965400 11.033500
     CHANNELS 3 Yrotation Xrotation Zrotation
     End Site
     {
      OFFSET 0.000000 -1.423100 5.872300
     }
    }
   }
  }
 }
}
MOTION
Frames: 5
Frame Time: 0.008333
-86.959772 55.691223 -45.827030 -171.891678 -14.281476 -0.840881 -1.394493 14.925680 0.234997 -0.125213 1.363348 0.052561 -0.212853 2.299173 0.090750 -1.188851 13.345650 0.387929 -1.741823 11.969734 -7.462729 -0.134819 -13.015421 -7.756877 -0.409784 0.110819 0.520031 3.422201 -3.192790 -7.375433 -71.711561 -60.875972 105.284720 -8.903325 14.976135 5.228241 -6.863570 -0.553701 2.511778 1.787403 -11.521233 7.207995 51.304978 -45.956985 -94.636476 12.566939 -11.435879 10.804143 -3.560654 -61.164433 7.458889 -38.201727 84.992489 -44.026817 -10.011353 -17.869906 13.758335 0.018466 -0.260692 0.054025 11.150176 -57.504242 -13.756330 89.298986 70.843227 90.690746 0.770010 -19.283991 -2.629304 0.054327 0.187583 0.022130
-86.961506 55.691517 -45.826377 -171.887657 -14.280306 -0.837849 -1.401453 14.925397 0.234432 -0.125714 1.363561 0.052778 -0.211385 2.302301 0.088955 -1.196315 13.348282 0.393598 -1.733952 11.969427 -7.469343 -0.135078 -13.021663 -7.762792 -0.398025 0.114611 0.515085 3.397206 -3.183349 -7.362015 -71.731164 -60.894604 105.324238 -8.921035 14.942519 5.207360 -6.854951 -0.554659 2.505205 1.792321 -11.520997 7.202564 51.298234 -45.957277 -94.634062 12.575598 -11.437067 10.809100 -3.556932 -61.163555 7.449044 -38.147678 84.988652 -43.973271 -10.002155 -17.852712 13.752378 0.043029 -0.241772 0.049976 11.151281 -57.503302 -13.761000 89.285379 70.846743 90.676192 0.768386 -19.282259 -2.630146 0.056457 0.190527 0.024866
-86.962384 55.691823 -45.825552 -171.883997 -14.279140 -0.837800 -1.407141 14.927779 0.234005 -0.125714 1.364242 0.052913 -0.209092 2.300666 0.088787 -1.197894 13.349592 0.394085 -1.729130 11.971849 -7.469116 -0.132172 -13.026905 -7.766375 -0.395246 0.116769 0.518879 3.390754 -3.181070 -7.355917 -71.770649 -60.886571 105.347873 -8.912685 14.949801 5.208966 -6.850679 -0.550687 2.506376 1.796326 -11.521770 7.196182 51.287701 -45.959206 -94.629829 12.587712 -11.440518 10.807794 -3.557460 -61.166009 7.449649 -38.130279 84.984480 -43.955136 -10.015345 -17.813078 13.745885 0.038813 -0.240856 0.048125 11.147526 -57.507215 -13.762259 89.283142 70.846286 90.674687 0.767317 -19.274075 -2.633006 0.057298 0.186449 0.026601
-86.967673 55.691842 -45.823059 -171.870943 -14.272916 -0.810793 -1.423591 14.923493 0.206069 -0.125846 1.365149 0.053130 -0.211231 2.299802 0.087903 -1.195475 13.356327 0.397279 -1.730611 11.969666 -7.470178 -0.128486 -13.025890 -7.767993 -0.400093 0.118153 0.519493 3.390171 -3.187990 -7.354246 -71.780662 -60.888625 105.354107 -8.918379 14.938464 5.199440 -6.854481 -0.551827 2.507671 1.806360 -11.496371 7.180246 51.286318 -45.974517 -94.646316 12.582591 -11.454292 10.813733 -3.511839 -61.174909 7.385227 -38.231151 84.968719 -44.057202 -10.000195 -17.764955 13.737673 0.076519 -0.221659 0.045703 11.177440 -57.501629 -13.817412 89.256941 70.840965 90.647365 0.745331 -19.316415 -2.637767 0.077943 0.231865 0.036771
-86.968373 55.692347 -45.822677 -171.873830 -14.277144 -0.807455 -1.417510 14.930815 0.210911 -0.125907 1.365468 0.052422 -0.212235 2.298647 0.085769 -1.195215 13.366879 0.398954 -1.732937 11.964589 -7.471716 -0.130126 -13.029971 -7.769118 -0.401450 0.112949 0.514012 3.388165 -3.192672 -7.347519 -71.789638 -60.891834 105.357971 -8.922946 14.928174 5.191837 -6.860492 -0.556039 2.510184 1.812797 -11.497387 7.173102 51.274060 -45.963196 -94.633820 12.581860 -11.461024 10.811769 -3.496502 -61.171953 7.372892 -38.260753 84.963142 -44.090782 -9.958835 -17.744055 13.729027 0.035140 -0.221946 0.042504 11.181721 -57.494689 -13.821462 89.249584 70.838308 90.639439 0.749478 -19.320217 -2.640172 0.074124 0.236696 0.036821
